<!DOCTYPE svg PUBLIC "-//W3C//DTD SVG 1.1//EN" "http://www.w3.org/Graphics/SVG/1.1/DTD/svg11.dtd">
<!-- Uploaded to: SVG Repo, www.svgrepo.com, Transformed by: SVG Repo Mixer Tools -->
<svg version="1.1" id="Uploaded to svgrepo.com" xmlns="http://www.w3.org/2000/svg" xmlns:xlink="http://www.w3.org/1999/xlink" width="800px" height="800px" viewBox="0 0 32 32" xml:space="preserve" fill="#000000">
<g id="SVGRepo_bgCarrier" stroke-width="0"/>
<g id="SVGRepo_tracerCarrier" stroke-linecap="round" stroke-linejoin="round"/>
<g id="SVGRepo_iconCarrier"> <style type="text/css"> .pictogram_een{fill:#757575;} .pictogram_drie{fill:#bf86f9;} .pictogram_vier{fill:#5a3885;} .pictogram_zes{fill:#1a1e1e;} .st0{fill:#000000;} .st1{fill:#F8AD89;} .st2{fill:none;} .st3{clip-path:url(#SVGID_2_);fill:#bf86f9;} .st4{clip-path:url(#SVGID_2_);fill:none;} .st5{clip-path:url(#SVGID_6_);fill:#757575;} .st6{clip-path:url(#SVGID_8_);fill:#bf86f9;} .st7{clip-path:url(#SVGID_8_);fill:none;} .st8{clip-path:url(#SVGID_10_);fill:#bf86f9;} .st9{clip-path:url(#SVGID_10_);fill:none;} .st10{fill:#757575;} </style> <g> <path class="pictogram_een" d="M32,29c0,1.65-1.35,3-3,3H3c-1.65,0-3-1.35-3-3V3c0-1.65,1.35-3,3-3h26c1.65,0,3,1.35,3,3V29z"/> <path class="pictogram_zes" d="M16,30l-4-6H0v5c0,1.65,1.35,3,3,3h26c1.65,0,3-1.35,3-3v-5H20L16,30z"/> <path class="pictogram_vier" d="M16,8V2C10.477,2,6,6.477,6,12c0,3.764,0.899,4.349,10,18c0-10.844,0-3.27,0-14 c-2.209,0-4-1.791-4-4C12,9.791,13.791,8,16,8z"/> <path class="pictogram_drie" d="M26,12c0-5.523-4.477-10-10-10v6c2.209,0,4,1.791,4,4c0,2.209-1.791,4-4,4c0,10.73,0,3.156,0,14 C25.08,16.38,26,15.768,26,12z"/> </g> </g>
</svg>